inDegrees=no
num_controls=7
num_derivatives=13
num_iterations=132
num_multipliers=7
num_parameters=0
num_slacks=7
num_states=26
objective=0.543620
objective_accelerations=0.063901
objective_balance=0.003396
objective_effort=0.047523
objective_height=0.419586
objective_ligament=0.009214
solver_duration=1354.682451
status=Solve_Succeeded
success=true
DataType=double
version=3
OpenSimVersion=4.5
endheader
time	/jointset/ground_pelvis/pelvis_tilt/value	/jointset/ground_pelvis/pelvis_tx/value	/jointset/ground_pelvis/pelvis_ty/value	/jointset/hip_r/hip_flexion_r/value	/jointset/hip_r/hip_adduction_r/value	/jointset/hip_r/hip_rotation_r/value	/jointset/back/lumbar_extension/value	/jointset/patellofemoral_r/patellar_flexion_r/value	/jointset/knee_r/knee_flexion_r/value	/jointset/knee_r/knee_adduction_r/value	/jointset/knee_r/knee_rotation_r/value	/jointset/ankle_r/ankle_angle_r/value	/jointset/subtalar_r/subtalar_angle_r/value	/jointset/ground_pelvis/pelvis_tilt/speed	/jointset/ground_pelvis/pelvis_tx/speed	/jointset/ground_pelvis/pelvis_ty/speed	/jointset/hip_r/hip_flexion_r/speed	/jointset/hip_r/hip_adduction_r/speed	/jointset/hip_r/hip_rotation_r/speed	/jointset/back/lumbar_extension/speed	/jointset/patellofemoral_r/patellar_flexion_r/speed	/jointset/knee_r/knee_flexion_r/speed	/jointset/knee_r/knee_adduction_r/speed	/jointset/knee_r/knee_rotation_r/speed	/jointset/ankle_r/ankle_angle_r/speed	/jointset/subtalar_r/subtalar_angle_r/speed	/forceset/tau_hip_flexion_r	/forceset/tau_hip_adduction_r	/forceset/tau_hip_rotation_r	/forceset/tau_knee_flexion_r	/forceset/tau_ankle_angle_r	/forceset/tau_subtalar_angle_r	/forceset/tau_lumbar_extension	lambda_cid13_p0	lambda_cid14_p0	lambda_cid14_p1	lambda_cid14_p2	lambda_cid14_p3	lambda_cid14_p4	lambda_cid14_p5	/jointset/ground_pelvis/pelvis_tilt/accel	/jointset/ground_pelvis/pelvis_tx/accel	/jointset/ground_pelvis/pelvis_ty/accel	/jointset/hip_r/hip_flexion_r/accel	/jointset/hip_r/hip_adduction_r/accel	/jointset/hip_r/hip_rotation_r/accel	/jointset/back/lumbar_extension/accel	/jointset/patellofemoral_r/patellar_flexion_r/accel	/jointset/knee_r/knee_flexion_r/accel	/jointset/knee_r/knee_adduction_r/accel	/jointset/knee_r/knee_rotation_r/accel	/jointset/ankle_r/ankle_angle_r/accel	/jointset/subtalar_r/subtalar_angle_r/accel	gamma_cid13_p0	gamma_cid14_p0	gamma_cid14_p1	gamma_cid14_p2	gamma_cid14_p3	gamma_cid14_p4	gamma_cid14_p5
1.5	-0.2079855066108593	0.01229268533094464	0.8151874738537546	0.9664839316276076	-0.2192782314531098	-0.1288530368862839	-0.3084958913935763	0.8487654675134795	0.8487654675133318	-0.01957950174385073	0.1745284800533879	0.2725060261555092	0.07390660809767478	0.4811217360752762	0.2055776032712745	0.5713808861833912	-2.254556552863073	0.008859717497597439	-0.2362350196738432	0.7020698797120029	-2.295046866209536	-2.295046866209555	0.444897235046774	-5.869650202724458e-06	-0.6328034523893531	-0.1828610321796124	-0.1320586593915781	-0.01755241497430077	0.01170863816822921	-0.3506692536750948	0.09168208977435369	-0.005332422284276303	0.1679967846339986	-22.15935302230511	-10.81130497113771	-1.77225636996375	-2.040664116536043	-3.543393407263083	-643.4929840747726	58.60377565925486	0.4558114416586727	0.629850392526188	-0.7323299370869522	-1.216584416795769	-0.1691226772731418	-0.8402641546755309	1.726233176392697	-1.325697114747614	-1.32569711474762	0.3861990508096402	-0.04556044212429712	-0.7516630621750672	-0.2777933618186625	1.65548084361022e-07	5.186750289310044e-09	-2.352542284419995e-06	5.473667336320926e-08	2.618990028555498e-07	1.767743247348665e-07	-1.30643749054689e-06
1.51	-0.2031520770535178	0.01437967960433227	0.820863412294642	0.943880163030024	-0.2191987136890804	-0.131259644112868	-0.3013902683553342	0.8257516878186353	0.8257516878185858	-0.01511161646842719	0.1745286808793887	0.2661412055105242	0.07206366363678782	0.4854795555272687	0.2117883160036906	0.5636798807311793	-2.265884454418616	0.007042879533222588	-0.245052892966759	0.7189385337038995	-2.307382928322997	-2.307382928323002	0.4486967817145865	2.5456518005781e-05	-0.6400590444577945	-0.1856874520331651	-0.124183833131646	-0.01987103944888671	0.01154808197812634	-0.3465036868059234	0.09466850175959142	-0.006197035415781474	0.1609103212169967	-23.65261623484505	-9.574764361019056	-1.762427535250163	-2.235065891593343	-3.974862919614871	-637.7588668786346	58.70699844084768	0.413071679894585	0.6118107126472138	-0.8079973758615706	-1.043989906791017	-0.1883971852283434	-0.8973334624071403	1.649752375744285	-1.138674098931499	-1.138674098929362	0.3789550458431383	0.02427852819328053	-0.6971793912149857	-0.2794976045787496	1.718019343051874e-07	-3.156389349596339e-08	-2.654660756923325e-06	-2.612243465983017e-07	3.177670143403277e-07	1.480907538888481e-07	-1.390431697275225e-06
1.52	-0.1982776084050709	0.01652780680485368	0.8264585383756928	0.9211724960405131	-0.2191374508705366	-0.1337533869815423	-0.2941194446041419	0.802624324834801	0.8026243248348462	-0.01060531121210881	0.1745285548434489	0.2597068945224477	0.07019356871587427	0.4893295542962609	0.2178041886980276	0.5552184142160368	-2.275336231248456	0.005208728400499785	-0.2536621480919758	0.7351100223020405	-2.317763524007905	-2.317763524007896	0.4525812312254416	-7.124203779148361e-05	-0.6467015210076882	-0.1882911241849245	-0.1163090068717179	-0.02218966392347072	0.01138752578799312	-0.3423381199367536	0.09765491374482985	-0.007061648547283615	0.1538238577999908	-25.12800007349473	-8.344680880958778	-1.7536178613887	-2.429431300263126	-4.398694712110285	-632.1206190047409	58.85190717649535	0.3542473050586277	0.5908823849103418	-0.8844221496730457	-0.8413594716550425	-0.1725853109427259	-0.7985405211357245	1.586800097641591	-0.9346038290371196	-0.9346038290371148	0.4031796194181668	-0.07116538692545357	-0.6290399584655261	-0.233243821459995	1.656936818596594e-07	-1.298288676477461e-07	-3.164541971137129e-06	-1.073015598851397e-06	4.35828563118776e-07	6.085962273530731e-08	-1.448299603166105e-06
1.53	-0.1933672355622119	0.0187350185018649	0.8319653274987161	0.8983799252183227	-0.2190939502824691	-0.1363354983382702	-0.2866903623653203	0.7794029926194183	0.7794029926194799	-0.006063037949047702	0.1745285940098722	0.2532094695156464	0.06829955255523494	0.4926638881239177	0.2235953073254537	0.5460217913311206	-2.282857952094885	0.003491748323568002	-0.2627002220440747	0.7505837771393159	-2.326159637593213	-2.326159637593185	0.4559100006347227	5.175269332809907e-05	-0.6526766600725274	-0.1904731998380253	-0.1087500074725457	-0.02418535007935574	0.0110980262914748	-0.3378063527651325	0.09999433755214401	-0.008066258220059675	0.1469719096596737	-26.58123877491561	-7.3517909848801	-1.859227707649337	-2.591750083107854	-4.605001297135819	-626.7845755674828	58.77398857721757	0.3108270574236969	0.5669438051534368	-0.9549589326175597	-0.6596227057269451	-0.1720493924285432	-0.9474984964750788	1.509265928360558	-0.7406501316800458	-0.740650131677245	0.3024654043621064	0.04930631855334524	-0.565595134278065	-0.2058971853721839	1.464506956250824e-07	-2.934528178139442e-07	-3.895171098418309e-06	-2.411626472914294e-06	6.199707452717487e-07	-8.857829124497541e-08	-1.47840831441719e-06
1.54	-0.1884259592539154	0.02099888482584936	0.837376615077947	0.8755217283247493	-0.219067778502444	-0.1390062019673642	-0.279110222027808	0.7561079922664989	0.7561079922665825	-0.001486529031361599	0.1745289180066958	0.2466555242674397	0.06638467408843719	0.4955102473837528	0.2291351140926756	0.5361181054575374	-2.288461445524919	0.001742966792232399	-0.2713806025652997	0.7653216420401915	-2.332497151514617	-2.33249715151457	0.4594283621511658	-1.427595864595096e-05	-0.6580055692887644	-0.1924635854166084	-0.101191008073378	-0.02618103623524294	0.01080852679500351	-0.3332745855935106	0.102333761359458	-0.009070867892837377	0.1401199615193523	-28.00914671808042	-6.365422621878601	-1.968510818479814	-2.750587873041258	-4.793225231809848	-621.5478275464918	58.67853606874159	0.2566523914943257	0.5406200128694851	-1.025834747406481	-0.4577139883761268	-0.1789456018234937	-0.727001834960965	1.439622110361624	-0.5228838962561275	-0.5228838962561283	0.4410980408505757	-0.1089700635441865	-0.4997939887450926	-0.1949058065564538	1.309431011703213e-07	-4.327294847303815e-07	-4.504089555718452e-06	-3.579636038293317e-06	7.742619772168137e-07	-2.273639870876724e-07	-1.420381809467925e-06
1.55	-0.1834587833008313	0.02331682200358812	0.8426854607462294	0.8526172681618942	-0.2190585565859825	-0.1417647363769257	-0.2713865302241102	0.7327598498103195	0.7327598498102951	0.003123270293315693	0.1745291866784481	0.240051733012166	0.06445184573438853	0.4978357528388791	0.2344027014221566	0.5255461291076858	-2.292101456171847	0.0001129158338607377	-0.2802920941629485	0.7792762440238854	-2.336786319955631	-2.336786319955627	0.4625355337357406	5.84618775267246e-05	-0.6626407063463078	-0.1940508720459853	-0.09348650250478105	-0.02829047272188171	0.01026576122147764	-0.3292071613119062	0.1050803263933156	-0.009953342311863284	0.1331873239215793	-29.40973570102611	-5.268590360478348	-2.000112393751197	-2.927865242306698	-5.053747730698332	-616.7584677922956	58.76869858608405	0.2070730587839592	0.5125772418915647	-1.088698774711172	-0.2678416320401484	-0.154580035058285	-0.9683259173985785	1.352308041086744	-0.3302030561953076	-0.3302030562017332	0.2451283446401371	0.06298453949936851	-0.428407342660623	-0.1343830502206104	1.197393276792609e-07	-5.439538470329655e-07	-4.972776154127408e-06	-4.551083226275715e-06	8.941597230527697e-07	-3.538764750761953e-07	-1.260808207592176e-06
1.56	-0.178471037605943	0.02568598488440256	0.8478854227118261	0.8296862684867323	-0.2190655442175479	-0.1446114063215094	-0.2635275066408329	0.7093791617220978	0.7093791617219611	0.0077640616593156	0.1745297004950201	0.2334049836306365	0.06250439592222765	0.4996241957444904	0.2393802547078112	0.5143413649203668	-2.293769347986335	-0.001498942813083479	-0.2890077095698663	0.7923879979561167	-2.339006277923494	-2.339006277923532	0.4656267704154825	3.475300575445535e-05	-0.6665971945399177	-0.1953878770390543	-0.08578199693618528	-0.03039990920851611	0.009722995647916252	-0.3251397370303028	0.1078268914271744	-0.01083581673088296	0.1262546863238047	-30.78224486266109	-4.177339238357272	-2.038975832061185	-3.096800538407146	-5.287819318761839	-612.0483310723821	58.78776209122537	0.1492398815913589	0.4826132041041896	-1.152392314900012	-0.06329022188792911	-0.1753071395379963	-0.6878265968147593	1.271052500069142	-0.1090418016257073	-0.1090418016257071	0.4379110598839965	-0.1282594051331795	-0.3640642159584128	-0.1448494792949088	1.120459508761479e-07	-6.069005348202392e-07	-5.157861456280977e-06	-5.101834093316327e-06	9.553573621207777e-07	-4.516306635514646e-07	-1.054454287312755e-06
1.57	-0.173468274412514	0.02810342819178216	0.8529702621945886	0.8067487881793164	-0.2190882521213519	-0.1475445781916558	-0.2555415115225051	0.6859868950440193	0.6859868950439784	0.01243512383202489	0.1745297241010224	0.2267222838771621	0.06054524705984256	0.5008373818506174	0.2440544345721701	0.5025346957621637	-2.293391004891811	-0.00302076679973456	-0.2976404911177926	0.8046566786786336	-2.339091047711575	-2.339091047711575	0.468538851113609	-3.119512103443547e-06	-0.6698184560395808	-0.1963768746715939	-0.07803506259379246	-0.03234783924702995	0.008896711420486226	-0.3214396695508998	0.1109387761852322	-0.01169301668326916	0.1193365667347249	-32.12433474892233	-2.993713264670221	-2.054561110414325	-3.265029040694928	-5.614691171227258	-607.8040648691759	58.86703742124875	0.09365461382801721	0.4519117818510227	-1.208689401269973	0.1386878202877724	-0.1386208656383601	-0.9533609237914201	1.181623803758929	0.09518556220642053	0.09518556221211928	0.20983791422139	0.0615251128132249	-0.2823492792666423	-0.06754882047134048	1.087405699329692e-07	-6.095001294633754e-07	-4.988445138115315e-06	-5.126714559179713e-06	9.431798677288513e-07	-5.134369776351673e-07	-7.896249690287441e-07
